<svg xmlns="http://www.w3.org/2000/svg" width="1240" height="1240"><path d="M298.381 132.911c-30.439 8.26-52.356 35.597-56.464 70.427-1.986 16.841 1.06 29.648 12.645 53.162 9.582 19.449 27.741 47.214 45.918 70.207 5.39 6.818 7.179 8.393 10.569 9.306 8.209 2.211 11.071.031 25.748-19.608 17.857-23.896 34.697-51.12 42.015-67.923 7.341-16.857 8.53-21.901 8.595-36.482.046-10.115-.4-15.214-1.778-20.336-4.55-16.912-10.972-28.212-22.541-39.664-14.702-14.551-26.736-19.934-46.088-20.616-9.18-.323-12.936-.015-18.619 1.527M172 256.69c-5.911.989-15.304 4.707-20.699 8.194-15.819 10.224-24.122 27.602-22.989 48.116.93 16.841 6.863 29.987 19.188 42.515 7.877 8.007 17.015 13.046 33.317 18.371 17.96 5.867 61.158 13.937 67.337 12.58 4.204-.923 8.642-5.066 9.758-9.108 1.701-6.163-4.455-42.327-10.995-64.589-3.642-12.399-11.395-28.703-16.42-34.532-7.828-9.08-23.458-18.063-36.085-20.738-6.5-1.377-16.792-1.748-22.412-.809m262.5.959c-16.299 3.458-32.412 14.491-40.678 27.851-7.307 11.808-15.339 38.156-19.815 65-3.359 20.14-3.573 26.32-1.054 30.31 1.15 1.821 3.744 4.001 5.766 4.846 3.326 1.389 4.818 1.374 15.728-.159 39.193-5.51 67.619-14.134 82.613-25.064 9.049-6.597 19.098-22.36 22.363-35.077 2.014-7.847 2.037-23.171.046-30.814-2.389-9.171-7.083-16.937-14.393-23.813-13.565-12.759-30.929-17.25-50.576-13.08M296.272 431.492C186.113 444.097 93.618 506.076 41.07 602.5 20.777 639.736 7.197 683.247 1.901 728c-2.935 24.801-1.168 63.969 4.122 91.382 9.271 48.042 32.209 96.731 64.598 137.118 11.457 14.287 36.928 39.761 50.879 50.886 63.001 50.238 149.733 83.752 250 96.602 46.634 5.977 114.735 6.554 171 1.449 77.109-6.995 136.929-23.624 184.986-51.421C783.082 1021.858 841.7 960.953 896.89 878c7.501-11.275 17.652-27.162 22.556-35.303 4.905-8.142 9.177-14.964 9.493-15.159.316-.196 4.847 3.453 10.068 8.107 35.828 31.942 73.232 52.078 107.44 57.84 12.357 2.081 33.033 2.122 44.566.088 42.235-7.447 83.431-32.403 126.165-76.428 16.921-17.431 20.03-22.082 21.914-32.774 1.301-7.389.022-15.553-3.597-22.962-4.579-9.375-31.217-36.489-52.995-53.942-20.405-16.352-47.032-31.32-68.173-38.32-17.819-5.901-28.136-7.572-46.327-7.505-18.05.067-29.379 2.064-47.076 8.297-8.848 3.117-10.932 3.566-10.357 2.232 2.918-6.775 7.698-22.415 9.527-31.171 1.712-8.194 2.193-13.903 2.193-26 0-17.311-1.907-28.919-7.553-45.977-6.498-19.631-22.517-47.948-38.199-67.523-16.737-20.892-42.767-46.737-52.904-52.526-10.673-6.096-25.629-6.092-36.247.008-9.789 5.624-35.318 30.953-51.599 51.195-22.499 27.974-38.75 59.678-44.258 86.346-4.009 19.407-3.998 37.6.035 57.123 5.374 26.018 20.897 56.718 42.833 84.711 4.248 5.422 7.531 10.05 7.295 10.286-.595.596-21.124 3.986-33.19 5.482-15.044 1.864-50.507 1.596-64.817-.49-41.949-6.116-62.996-18.197-84.849-48.702-7.856-10.967-12.707-20.938-20.887-42.933-12.758-34.306-23.421-55.64-39.732-79.496-25.953-37.958-61.292-71.628-99.715-95.005-37.789-22.991-78.548-37.631-124-44.538-18.308-2.783-59.92-3.564-78.228-1.469" fill="undefined" fill-rule="evenodd"/></svg>